<?xml version="1.0" standalone="no"?>
<!DOCTYPE svg PUBLIC "-//W3C//DTD SVG 20010904//EN"
 "http://www.w3.org/TR/2001/REC-SVG-20010904/DTD/svg10.dtd">
<svg version="1.0" xmlns="http://www.w3.org/2000/svg"
 width="112.000000pt" height="119.000000pt" viewBox="0 0 112.000000 119.000000"
 preserveAspectRatio="xMidYMid meet">

<g transform="translate(0.000000,119.000000) scale(0.100000,-0.100000)"
fill="#000000" stroke="none">
<path d="M0 595 l0 -595 560 0 560 0 0 595 0 595 -560 0 -560 0 0 -595z m906
444 c57 -15 108 -62 123 -114 6 -24 11 -133 11 -273 0 -287 -9 -319 -105 -363
-35 -16 -69 -19 -288 -19 -193 0 -255 -3 -282 -15 -38 -15 -55 -46 -55 -99 0
-17 -5 -37 -12 -44 -13 -13 -163 -17 -192 -6 -14 5 -16 50 -16 396 0 420 3
448 50 493 53 50 80 54 413 55 199 0 324 -4 353 -11z"/>
<path d="M350 863 c-37 -14 -40 -32 -40 -264 l0 -227 29 27 c44 42 93 51 262
51 85 0 164 3 176 6 36 10 45 61 41 226 -3 125 -6 150 -21 165 -16 16 -41 18
-225 20 -114 1 -214 0 -222 -4z"/>
</g>
</svg>
